<?xml version="1.0" encoding="utf-8"?>
<!-- Generator: Adobe Illustrator 26.3.1, SVG Export Plug-In . SVG Version: 6.00 Build 0)  -->
<svg version="1.1" id="Capa_1" xmlns="http://www.w3.org/2000/svg" xmlns:xlink="http://www.w3.org/1999/xlink" x="0px" y="0px"
	 viewBox="0 0 473.8 473.8" style="enable-background:new 0 0 473.8 473.8;" xml:space="preserve">
<g>
	<path d="M462.3,224.4c-0.8,0.1-1.5,0.2-2.3,0.2c-6.5,0-12.2-4.6-13.3-11.2c-7.9-46.6-29.9-89.1-63.7-122.9
		c-33.8-33.7-76.3-55.8-122.9-63.7c-7.4-1.3-12.3-8.2-11.1-15.6c1.3-7.3,8.2-12.3,15.5-11c52.2,8.9,99.7,33.5,137.5,71.3
		c37.8,37.8,62.4,85.3,71.3,137.5C474.6,216.3,469.6,223.3,462.3,224.4z"/>
	<path d="M245.2,97.1c1.3-7.3,8.2-12.2,15.6-11c31.7,5.4,60.6,20.4,83.5,43.3c22.9,22.9,37.9,51.8,43.3,83.5
		c1.2,7.4-3.7,14.4-11.1,15.6c-0.8,0.1-1.5,0.2-2.3,0.2c-6.5,0-12.2-4.6-13.3-11.2c-4.5-26.2-16.8-50-35.8-69s-42.8-31.4-69-35.8
		C248.7,111.5,243.9,104.4,245.2,97.1z"/>
	<path d="M429.4,348.6l-54.9-55.1c-9.7-10.1-21.4-15.5-33.8-15.5c-12.3,0-24.1,5.3-34.2,15.4l-31.6,31.5c-2.6-1.4-5.2-2.7-7.7-4
		c-3.6-1.8-7-3.5-9.9-5.3c-29.6-18.8-56.5-43.3-82.3-75c-12.5-15.8-20.9-29.1-27-42.6c8.2-7.5,15.8-15.3,23.2-22.8
		c2.8-2.8,5.6-5.7,8.4-8.5c21-21,21-48.2,0-69.2l-27.3-27.3c-3.1-3.1-6.3-6.3-9.3-9.5c-6-6.2-12.3-12.6-18.8-18.6
		c-9.7-9.6-21.3-14.7-33.5-14.7c-12.2,0-24,5.1-34,14.7c-0.1,0.1-0.1,0.1-0.2,0.2l-34,34.3C9.7,89.4,2.4,105,0.8,123.1
		c-2.4,29.2,6.2,56.4,12.8,74.2C29.8,241,54,281.5,90.1,324.9c43.8,52.3,96.5,93.6,156.7,122.7c23,10.9,53.7,23.8,88,26
		c2.1,0.1,4.3,0.2,6.3,0.2c23.1,0,42.5-8.3,57.7-24.8c0.1-0.2,0.3-0.3,0.4-0.5c5.2-6.3,11.2-12,17.5-18.1c4.3-4.1,8.7-8.4,13-12.9
		c9.9-10.3,15.1-22.3,15.1-34.6C444.8,370.5,439.5,358.6,429.4,348.6z M410.3,398.8c-3.9,4.2-7.9,8-12.2,12.2
		c-6.5,6.2-13.1,12.7-19.3,20c-10.1,10.8-22,15.9-37.6,15.9c-1.5,0-3.1,0-4.6-0.1c-29.7-1.9-57.3-13.5-78-23.4
		C202,396,152.3,357.1,111,307.8c-34.1-41.1-56.9-79.1-72-119.9c-9.3-24.9-12.7-44.3-11.2-62.6c1-11.7,5.5-21.4,13.8-29.7l34.1-34.1
		c4.9-4.6,10.1-7.1,15.2-7.1c6.3,0,11.4,3.8,14.6,7c0.1,0.1,0.2,0.2,0.3,0.3c6.1,5.7,11.9,11.6,18,17.9c3.1,3.2,6.3,6.4,9.5,9.7
		l27.3,27.3c10.6,10.6,10.6,20.4,0,31c-2.9,2.9-5.7,5.8-8.6,8.6c-8.4,8.6-16.4,16.6-25.1,24.4c-0.2,0.2-0.4,0.3-0.5,0.5
		c-8.6,8.6-7,17-5.2,22.7c0.1,0.3,0.2,0.6,0.3,0.9c7.1,17.2,17.1,33.4,32.3,52.7l0.1,0.1c27.6,34,56.7,60.5,88.8,80.8
		c4.1,2.6,8.3,4.7,12.3,6.7c3.6,1.8,7,3.5,9.9,5.3c0.4,0.2,0.8,0.5,1.2,0.7c3.4,1.7,6.6,2.5,9.9,2.5c8.3,0,13.5-5.2,15.2-6.9
		l34.2-34.2c3.4-3.4,8.8-7.5,15.1-7.5c6.2,0,11.3,3.9,14.4,7.3c0.1,0.1,0.1,0.1,0.2,0.2l55.1,55.1
		C420.5,377.7,420.5,388.2,410.3,398.8z"/>
</g>
</svg>
