<svg width="25" height="25" viewBox="0 0 25 25" fill="none" xmlns="http://www.w3.org/2000/svg">
<path fill-rule="evenodd" clip-rule="evenodd" d="M12.5 25C5.60747 25 0 19.3925 0 12.5C0 5.60747 5.60747 0 12.5 0C19.3925 0 25 5.60747 25 12.5C25 19.3925 19.3925 25 12.5 25ZM18.9823 16.8912C19.1364 16.8912 19.2619 16.7658 19.2619 16.6116V8.76411L12.902 13.8145C12.7843 13.908 12.6421 13.9547 12.5 13.9547C12.3578 13.9547 12.2156 13.908 12.0979 13.8145L5.73809 8.76411V16.6116C5.73809 16.7658 5.86353 16.8912 6.01763 16.8912H18.9823ZM18.0077 8.10884L12.5 12.4826L6.99224 8.10884H18.0077ZM20.555 8.38838V16.6117C20.555 17.4789 19.8495 18.1844 18.9823 18.1844H6.01763C5.15044 18.1844 4.44502 17.4789 4.44502 16.6117V8.38838C4.44502 7.52124 5.15049 6.81577 6.01763 6.81577H18.9823C19.8495 6.81572 20.555 7.52124 20.555 8.38838Z" fill="#0E1E3F"/>
</svg>
