<svg width="50" height="50" viewBox="0 0 50 50" fill="none" xmlns="http://www.w3.org/2000/svg">
<g clip-path="url(#clip0_330_827)">
<path d="M4.90001 42.8179C4.33372 42.3904 3.47883 42.172 2.35902 42.172C1.64038 42.1686 0.922374 42.2156 0.210253 42.3126L0 42.3432V49.8825H1.59172V47.0514C1.80089 47.0724 2.02093 47.0762 2.23336 47.0762C3.40866 47.0762 4.39329 46.7746 5.00229 46.2301C5.49596 45.8037 5.7462 45.2259 5.7462 44.5129C5.74511 43.8152 5.44373 43.2123 4.90001 42.8179ZM4.15338 44.5555C4.15338 45.6746 2.96558 45.8408 2.25757 45.8408C2.03472 45.8433 1.81195 45.8314 1.59063 45.8051V43.4361C1.85427 43.4085 2.11925 43.3957 2.38432 43.3979C3.04636 43.3979 4.15338 43.5483 4.15338 44.5555Z" fill="white"/>
<path d="M10.4396 42.1104C7.96118 42.1104 6.23047 43.7587 6.23047 46.119C6.23047 48.4042 7.90923 50.0004 10.3129 50.0004C12.8307 50.0004 14.5223 48.3851 14.5223 45.9809C14.5223 43.6657 12.8816 42.1104 10.4396 42.1104ZM12.8675 46.0234C12.8675 47.3828 12.0972 48.753 10.3762 48.753C8.67354 48.753 7.89781 47.3759 7.89781 46.0963C7.89781 44.8317 8.5506 43.355 10.389 43.355C12.0917 43.3564 12.8675 44.7386 12.8675 46.0234Z" fill="white"/>
<path d="M19.3383 42.1104C16.8599 42.1104 15.1289 43.7587 15.1289 46.119C15.1289 48.4042 16.8079 50.0004 19.2116 50.0004C21.7294 50.0004 23.421 48.3851 23.421 45.9809C23.4204 43.6657 21.7803 42.1104 19.3383 42.1104ZM19.2749 48.7544C17.572 48.7544 16.7965 47.3773 16.7965 46.0977C16.7965 44.8331 17.4493 43.3564 19.2875 43.3564C20.9904 43.3564 21.7659 44.7389 21.7659 46.0234C21.7659 47.3828 20.9956 48.7544 19.2749 48.7544Z" fill="white"/>
<path d="M25.7829 42.2266H24.1914V49.8827H29.4309V48.6156H25.7829V42.2266Z" fill="white"/>
<path d="M34.7624 42.4814H33.2001L29.3965 47.0496V48.0012H33.2216V49.8826H34.7624V48.0012H35.9151V46.7764H34.7624V42.4814ZM31.2839 46.7764L32.9681 44.8111L32.9814 44.7939C33.0676 44.6736 33.1473 44.56 33.224 44.4481C33.2224 44.5371 33.2216 44.6261 33.2216 44.7145V46.7759L31.2839 46.7764Z" fill="white"/>
<path d="M41.8336 42.2275V46.7147C41.8336 48.0682 41.217 48.7547 40.0012 48.7547C38.8588 48.7547 38.2571 48.0491 38.2571 46.7147V42.2275H36.6523V46.6931C36.6523 48.826 37.8279 50.0005 39.9623 50.0005C42.1703 50.0005 43.4367 48.7796 43.4367 46.6508V42.2275H41.8336Z" fill="white"/>
<path d="M48.2775 21.7701V20.1905H47.5434V21.7701H46.7764V20.1001H46.0371V22.6506H49.9419V20.0098H49.2026V21.7701H48.2775Z" fill="white"/>
<path d="M47.6998 16.861C47.9626 16.861 48.2068 16.8585 48.4478 16.8495C48.2721 16.9623 48.0926 17.0854 47.9068 17.2199L46.0371 18.5754V19.4172H49.9419V18.5667H48.2476C47.9465 18.5667 47.6887 18.57 47.4496 18.5768C47.6378 18.4553 47.8413 18.3156 48.0662 18.1543L49.943 16.8108V16.0107H46.0371V16.861H47.6998Z" fill="white"/>
<path d="M48.5511 14.3513C49.1446 14.3513 49.2534 14.5423 49.2534 14.9209C49.2541 15.0506 49.2341 15.1796 49.1944 15.3031L49.1294 15.4941L49.8513 15.6453L49.9032 15.4993C49.9576 15.3435 49.9981 15.088 49.9981 14.8786C49.9981 13.9577 49.5104 13.4707 48.5881 13.4707H46.0352V14.3513H48.5511Z" fill="white"/>
<path d="M45.9805 10.8623C45.9805 12.078 46.8201 12.9272 48.0223 12.9272C49.1876 12.9272 50.0014 12.1029 50.0014 10.9226C50.0014 9.68721 49.1786 8.85742 47.9541 8.85742C46.7918 8.85742 45.9805 9.68175 45.9805 10.8623ZM49.2716 10.8923C49.2716 11.6607 48.6188 12.0114 48.0112 12.0114C47.4104 12.0114 46.7086 11.7172 46.7086 10.8874C46.7086 10.119 47.3647 9.76827 47.9742 9.76827C48.6207 9.76827 49.2724 10.1157 49.2724 10.8915L49.2716 10.8923Z" fill="white"/>
<path d="M47.105 6.79526L47.2056 6.85394C47.3299 6.92682 47.4452 6.99424 47.5573 7.05702C47.4213 7.13126 47.2763 7.21342 47.105 7.31333L46.0371 7.93757V8.95843L48.3091 7.5306H49.9411V6.64404H48.3075L46.0379 5.12695V6.15763L47.105 6.79526Z" fill="white"/>
<path d="M49.9419 3.75488H46.0371V4.63544H49.9419V3.75488Z" fill="white"/>
<path d="M46.0371 3.39179H46.7816V2.15585H49.9419V1.26929H46.7816V0.0273438H46.0371V3.39179Z" fill="white"/>
<path d="M1.20508 20.03L27.3981 0.789062V20.03H1.20508Z" fill="white"/>
<path d="M49.9766 23.7359H43.3758V0H31.1694V23.7359H0V32.5677H31.1694V41.1631H43.3758V32.5677H49.9766V23.7359Z" fill="white"/>
</g>
<defs>
<clipPath id="clip0_330_827">
<rect width="50" height="50" fill="white"/>
</clipPath>
</defs>
</svg>
