<svg width="25" height="25" viewBox="0 0 25 25" fill="none" xmlns="http://www.w3.org/2000/svg">
<rect width="25" height="25" rx="12.5" fill="#0E1E3F"/>
<path d="M5.61842 12.2248C9.25348 10.6078 11.6774 9.54171 12.8902 9.02665C16.3531 7.55606 17.0727 7.3006 17.5416 7.29207C17.6448 7.29031 17.8754 7.31641 18.0248 7.44018C18.151 7.5447 18.1857 7.68588 18.2023 7.78497C18.2189 7.88405 18.2396 8.10978 18.2231 8.28616C18.0355 10.2993 17.2235 15.1846 16.8104 17.4394C16.6356 18.3935 16.2915 18.7133 15.9583 18.7447C15.2342 18.8127 14.6843 18.256 13.983 17.7866C12.8855 17.0521 12.2655 16.5949 11.2002 15.8781C9.96911 15.0498 10.7672 14.5945 11.4688 13.8505C11.6524 13.6558 14.8429 10.6928 14.9046 10.424C14.9124 10.3904 14.9195 10.2651 14.8466 10.1989C14.7737 10.1328 14.6661 10.1554 14.5884 10.1734C14.4784 10.1989 12.7252 11.382 9.32881 13.7229C8.83117 14.0718 8.38042 14.2418 7.97657 14.2328C7.53135 14.223 6.67493 13.9758 6.03827 13.7645C5.25737 13.5053 4.63674 13.3683 4.69078 12.9282C4.71893 12.6989 5.02814 12.4644 5.61842 12.2248Z" fill="white"/>
</svg>
