<?xml version="1.0" encoding="utf-8"?>
<!-- Generator: Adobe Illustrator 26.3.1, SVG Export Plug-In . SVG Version: 6.00 Build 0)  -->
<svg version="1.1" id="Layer_1" xmlns="http://www.w3.org/2000/svg" xmlns:xlink="http://www.w3.org/1999/xlink" x="0px" y="0px"
	 viewBox="0 0 50 50" style="enable-background:new 0 0 50 50;" xml:space="preserve">
<style type="text/css">
	.st0{fill:#0FA24A;}
</style>
<g>
	<path class="st0" d="M25,50C11.3,50,0.2,38.8,0.2,25.1S11.3,0.2,25,0.2s24.9,11.1,24.9,24.9S38.7,50,25,50z M25,5.2
		c-10.9,0-19.9,8.9-19.9,19.9C5.2,36,14.1,45,25,45C36,45,44.9,36,44.9,25.1C44.9,14.2,36,5.2,25,5.2z"/>
</g>
<g>
	<polygon class="st0" points="39.2,18.3 20.7,36.2 17.3,32.5 17.3,32.5 11,26.2 14.6,22.7 20.9,29 35.7,14.7 	"/>
</g>
</svg>
