<svg width="25" height="25" viewBox="0 0 25 25" fill="none" xmlns="http://www.w3.org/2000/svg">
<rect width="25" height="25" rx="12.5" fill="#0E1E3F"/>
<path d="M18.6217 6.34579C18.2082 5.96565 16.5343 4.74854 12.8029 4.73187C12.8029 4.73187 8.40464 4.4651 6.26052 6.43249C5.06675 7.62626 4.6466 9.37023 4.60325 11.5377C4.5599 13.7018 4.50321 17.76 8.41464 18.8604H8.41797L8.41464 20.5377C8.41464 20.5377 8.3913 21.2179 8.83813 21.3546C9.37833 21.5213 9.69844 21.0045 10.2153 20.4476C10.4987 20.1408 10.8889 19.694 11.1857 19.3505C13.86 19.574 15.9174 19.0604 16.1508 18.9837C16.691 18.807 19.7488 18.4169 20.2456 14.3587C20.7592 10.1839 19.9955 7.53956 18.6217 6.34579ZM19.0752 14.0653C18.6551 17.4532 16.1775 17.6666 15.7206 17.8133C15.5272 17.8767 13.7199 18.3268 11.4457 18.1768C11.4457 18.1768 9.7518 20.2209 9.22494 20.7511C9.14157 20.8344 9.04487 20.8678 8.98151 20.8511C8.89148 20.8278 8.8648 20.7211 8.86814 20.5643C8.86814 20.3376 8.88148 17.7733 8.88148 17.7733C8.87814 17.7733 8.87814 17.7733 8.88148 17.7733C5.57027 16.8563 5.76367 13.4017 5.80035 11.5944C5.83703 9.78705 6.17716 8.30317 7.18752 7.30614C8.99819 5.66554 12.7362 5.90896 12.7362 5.90896C15.8907 5.9223 17.4013 6.87265 17.7514 7.18943C18.9151 8.1898 19.5087 10.574 19.0752 14.0653Z" fill="white"/>
<path d="M14.34 11.6573C14.23 11.6573 14.1366 11.5706 14.1299 11.4573C14.0933 10.7403 13.7565 10.3902 13.0696 10.3535C12.9529 10.3469 12.8628 10.2468 12.8695 10.1301C12.8762 10.0134 12.9762 9.92337 13.0929 9.93004C13.9999 9.98005 14.5068 10.5002 14.5534 11.4339C14.5601 11.5506 14.4701 11.6507 14.3534 11.654C14.3467 11.6573 14.3434 11.6573 14.34 11.6573Z" fill="white"/>
<path d="M15.4207 12.0175H15.4173C15.3006 12.0141 15.2073 11.9174 15.2106 11.8007C15.2273 11.0804 15.0205 10.4969 14.5804 10.0167C14.1435 9.53655 13.54 9.27646 12.743 9.21977C12.6263 9.20976 12.5396 9.10973 12.5496 8.99302C12.5596 8.87631 12.6597 8.78961 12.7764 8.79961C13.6767 8.8663 14.387 9.17975 14.8938 9.73329C15.404 10.2902 15.6507 10.9871 15.6341 11.8107C15.6307 11.9274 15.534 12.0175 15.4207 12.0175Z" fill="white"/>
<path d="M16.5274 12.451C16.4107 12.451 16.3173 12.3576 16.3173 12.2409C16.3073 10.9504 15.9372 9.96671 15.1835 9.22978C14.4399 8.50285 13.4963 8.13271 12.3859 8.12271C12.2691 8.12271 12.1758 8.026 12.1758 7.9093C12.1758 7.79259 12.2725 7.69922 12.3859 7.69922C13.6096 7.70922 14.65 8.11937 15.4737 8.92633C16.3006 9.7333 16.7241 10.847 16.7374 12.2342C16.7408 12.3543 16.6474 12.451 16.5274 12.451C16.5307 12.451 16.5307 12.451 16.5274 12.451Z" fill="white"/>
<path d="M13.1194 14.2681C13.1194 14.2681 13.4162 14.2947 13.5762 14.098L13.8863 13.7078C14.0364 13.5144 14.3999 13.3911 14.7533 13.5878C14.9501 13.6978 15.3069 13.9179 15.5269 14.0813C15.7637 14.2547 16.2439 14.6549 16.2472 14.6582C16.4773 14.8516 16.5306 15.135 16.3739 15.4385C16.3739 15.4385 16.3739 15.4418 16.3739 15.4451C16.2139 15.7286 15.9971 15.9953 15.727 16.2421C15.7237 16.2421 15.7237 16.2454 15.7204 16.2454C15.4969 16.4322 15.2769 16.5389 15.0634 16.5622C15.0368 16.5689 15.0068 16.5689 14.9667 16.5689C14.8734 16.5689 14.78 16.5556 14.6866 16.5255L14.68 16.5155C14.3465 16.4222 13.793 16.1888 12.8726 15.6786C12.2724 15.3484 11.7756 15.0117 11.3521 14.6749C11.1287 14.4981 10.9019 14.3014 10.6685 14.068C10.6618 14.0613 10.6518 14.0513 10.6452 14.0446C10.6385 14.038 10.6285 14.028 10.6218 14.0213C10.6151 14.0146 10.6051 14.0046 10.5985 13.998C10.5918 13.9913 10.5818 13.9813 10.5751 13.9746C10.345 13.7412 10.145 13.5144 9.96825 13.291C9.63146 12.8709 9.29467 12.3707 8.96454 11.7705C8.45436 10.8468 8.22094 10.2933 8.12757 9.96314L8.11757 9.95647C8.08756 9.86311 8.07422 9.76974 8.07422 9.67637C8.07422 9.63636 8.07422 9.60635 8.08089 9.57967C8.10756 9.36292 8.21427 9.14618 8.39767 8.92276C8.39767 8.91943 8.40101 8.91943 8.40101 8.91609C8.64776 8.64266 8.91453 8.42925 9.19796 8.26919C9.19796 8.26919 9.2013 8.26919 9.20463 8.26919C9.50474 8.11247 9.78818 8.16582 9.98492 8.3959C9.98492 8.3959 10.3884 8.87941 10.5618 9.11617C10.7252 9.33958 10.9453 9.69304 11.0553 9.88978C11.252 10.2432 11.1287 10.6067 10.9353 10.7568L10.5451 11.0669C10.3484 11.2269 10.3751 11.5237 10.3751 11.5237C10.3751 11.5237 10.9519 13.7178 13.1194 14.2681Z" fill="white"/>
</svg>
