<svg width="25" height="25" viewBox="0 0 25 25" fill="none" xmlns="http://www.w3.org/2000/svg">
<rect width="25" height="25" rx="12.5" fill="#0E1E3F"/>
<path d="M18.0988 6.88131C16.7587 5.5018 14.9062 4.75293 13.0143 4.75293C8.99405 4.75293 5.76207 8.02433 5.80149 12.0052C5.80149 13.2664 6.15621 14.4883 6.74743 15.5919L5.72266 19.3363L9.54585 18.3509C10.61 18.9421 11.7925 19.218 12.9749 19.218C16.9558 19.218 20.1877 15.9466 20.1877 11.9658C20.1877 10.0345 19.4389 8.2214 18.0988 6.88131ZM13.0143 17.9962C11.9501 17.9962 10.8859 17.7203 9.97941 17.1685L9.74293 17.0502L7.45689 17.6414L8.04811 15.3948L7.89045 15.1583C6.15621 12.3599 6.98392 8.65496 9.82175 6.92072C12.6596 5.18649 16.3251 6.01419 18.0594 8.85203C19.7936 11.6899 18.9659 15.3554 16.1281 17.0896C15.2215 17.6809 14.1179 17.9962 13.0143 17.9962ZM16.4828 13.6212L16.0492 13.4241C16.0492 13.4241 15.4186 13.1482 15.0245 12.9511C14.985 12.9511 14.9456 12.9117 14.9062 12.9117C14.788 12.9117 14.7091 12.9511 14.6303 12.9905C14.6303 12.9905 14.5909 13.03 14.0391 13.6606C13.9997 13.7394 13.9209 13.7788 13.842 13.7788H13.8026C13.7632 13.7788 13.6844 13.7394 13.645 13.7L13.4479 13.6212C13.0143 13.4241 12.6202 13.1876 12.3049 12.8723C12.226 12.7935 12.1078 12.7146 12.029 12.6358C11.7531 12.3599 11.4772 12.0446 11.2801 11.6899L11.2407 11.611C11.2013 11.5716 11.2013 11.5322 11.1618 11.4534C11.1618 11.3746 11.1618 11.2957 11.2013 11.2563C11.2013 11.2563 11.3589 11.0592 11.4772 10.941C11.556 10.8622 11.5954 10.7439 11.6742 10.6651C11.7531 10.5468 11.7925 10.3892 11.7531 10.2709C11.7136 10.0739 11.2407 9.00969 11.1224 8.7732C11.0436 8.65496 10.9648 8.61554 10.8465 8.57613H10.7283C10.6495 8.57613 10.5312 8.57613 10.413 8.57613C10.3341 8.57613 10.2553 8.61554 10.1765 8.61554L10.1371 8.65496C10.0582 8.69437 9.97941 8.7732 9.90058 8.81261C9.82176 8.89144 9.78234 8.97027 9.70351 9.0491C9.42761 9.40383 9.26995 9.83739 9.26995 10.2709C9.26995 10.5863 9.34878 10.9016 9.46703 11.1775L9.50644 11.2957C9.86117 12.0446 10.3341 12.7146 10.9648 13.3059L11.1224 13.4635C11.2407 13.5818 11.3589 13.6606 11.4377 13.7788C12.2654 14.4883 13.2114 15.0007 14.2756 15.2766C14.3938 15.316 14.5515 15.316 14.6697 15.3554C14.788 15.3554 14.9456 15.3554 15.0639 15.3554C15.2609 15.3554 15.4974 15.2766 15.6551 15.1977C15.7733 15.1189 15.8522 15.1189 15.931 15.0401L16.0098 14.9613C16.0886 14.8824 16.1675 14.843 16.2463 14.7642C16.3251 14.6854 16.404 14.6065 16.4434 14.5277C16.5222 14.37 16.5616 14.173 16.601 13.9759C16.601 13.8971 16.601 13.7788 16.601 13.7C16.601 13.7 16.5616 13.6606 16.4828 13.6212Z" fill="white"/>
</svg>
